<svg version="1.1" id="Layer_1" xmlns="http://www.w3.org/2000/svg" xmlns:xlink="http://www.w3.org/1999/xlink" x="0px" y="0px"
	 width="100%" viewBox="0 0 519 453" enable-background="new 0 0 519 453" xml:space="preserve">
<path fill="#F5A595" opacity="1.000000" stroke="none" 
	d="
M172.000000,454.000000 
	C171.555664,454.000000 171.111328,454.000000 170.188080,453.644073 
	C165.753876,451.880768 161.798553,450.473358 157.885590,449.057983 
	C157.927963,449.049988 157.924545,449.136169 157.974747,448.671478 
	C157.998352,433.824158 158.061890,419.440308 157.864960,405.059998 
	C157.827972,402.358093 156.751160,399.670380 156.134125,396.509644 
	C156.114090,388.611908 156.114090,381.180664 156.114090,373.072357 
	C135.925369,373.072357 115.441635,373.072357 94.726929,372.803711 
	C93.330009,372.424835 92.164055,372.314636 90.568451,372.158875 
	C72.937073,370.390442 58.513855,362.828247 45.841583,351.353729 
	C28.392422,335.553864 21.239193,315.246643 21.139841,292.479095 
	C20.824951,220.318741 21.006546,148.156235 21.251537,75.696457 
	C23.004648,67.187775 24.502398,58.977207 25.984079,50.590538 
	C25.968014,50.414440 26.127312,50.098690 26.460613,50.011696 
	C28.194401,46.875324 29.594885,43.825943 30.979790,40.601700 
	C30.964212,40.426838 31.118347,40.111370 31.361706,39.953377 
	C31.737944,39.434509 31.870819,39.073631 31.975283,38.565086 
	C31.946869,38.417416 32.099361,38.158180 32.345001,38.027824 
	C32.713142,37.559883 32.835651,37.222298 32.967880,36.923409 
	C32.977604,36.962101 32.898502,36.972580 33.177124,36.907768 
	C33.628700,36.514885 33.801659,36.186813 33.991024,35.911949 
	C34.007435,35.965149 33.900375,35.995766 34.148853,35.880280 
	C34.596333,35.463337 34.795330,35.161880 34.993927,34.933411 
	C34.993526,35.006401 34.847546,35.005615 35.139225,34.849022 
	C35.599140,34.084885 35.767376,33.477333 35.955750,32.911854 
	C35.975895,32.953922 35.888233,32.985821 36.152290,32.892380 
	C36.605579,32.486992 36.794807,32.175041 36.973740,31.922073 
	C36.963436,31.981050 36.847168,31.952412 37.211906,31.925434 
	C38.026524,30.889162 38.476398,29.879866 38.951591,28.904510 
	C38.976910,28.938450 38.904617,28.982557 39.168911,28.896992 
	C39.616802,28.498590 39.800404,28.185751 39.986176,27.929527 
	C39.988354,27.986139 39.875046,27.986370 40.140194,27.891335 
	C40.598682,27.484652 40.792019,27.173006 40.974617,26.919800 
	C40.963882,26.978241 40.848869,26.948318 41.202740,26.941839 
	C43.353996,24.907011 45.151382,22.878664 46.965904,20.906662 
	C46.983047,20.963009 46.868382,20.989964 47.127480,20.888737 
	C47.588001,20.486366 47.789425,20.185223 47.985363,19.940372 
	C47.979877,19.996668 47.867676,19.982252 48.136913,19.897484 
	C48.597752,19.504049 48.789349,19.195387 48.966625,18.928682 
	C48.952301,18.970642 48.872326,18.932341 49.245270,18.982674 
	C50.726326,17.972244 51.834431,16.911478 52.948700,15.893230 
	C52.954861,15.935750 52.869091,15.930511 53.238434,15.988071 
	C54.386074,15.313226 55.164368,14.580819 55.955128,13.897839 
	C55.967594,13.947267 55.866375,13.959456 56.139671,13.924034 
	C56.655651,13.627205 56.898331,13.365798 57.281212,13.028267 
	C57.421406,12.952141 57.736973,12.999217 58.009224,12.925995 
	C58.549717,12.608573 58.817959,12.364373 59.261513,12.041599 
	C59.436829,11.963025 59.821064,11.963161 60.115776,11.985416 
	C60.606903,12.004364 60.803314,12.001057 61.356514,11.943323 
	C68.485565,9.396002 75.177933,6.646203 82.059891,4.506031 
	C86.224754,3.210826 90.683434,2.860446 95.478111,2.087951 
	C100.272995,2.077381 104.599884,2.054017 108.926765,2.052998 
	C204.618149,2.030474 300.309540,2.010421 396.324402,2.243150 
	C402.099182,2.332585 407.550446,2.168766 413.427734,2.025513 
	C415.556854,2.068583 417.259918,2.091088 419.265930,2.348202 
	C427.870209,4.796112 436.199768,6.910689 444.458984,9.271286 
	C447.763794,10.215850 450.913635,11.702459 454.084686,12.944672 
	C454.035339,12.947007 454.044861,12.848660 454.078674,13.197309 
	C457.117798,15.342057 460.123047,17.138157 463.086243,18.952301 
	C463.044189,18.970346 463.017883,18.882648 463.105774,19.149696 
	C463.507690,19.605883 463.821747,19.795019 464.076721,19.991308 
	C464.017670,19.998461 464.006165,19.880032 464.117493,20.133440 
	C464.530426,20.588919 464.831970,20.790991 465.075500,20.980532 
	C465.017487,20.968002 465.049591,20.853706 465.053802,21.174206 
	C465.657654,22.005161 466.257324,22.515617 467.008179,23.329926 
	C470.332916,27.142151 473.732971,30.473774 476.635468,34.193607 
	C483.941833,43.557419 488.938110,53.978962 490.105286,66.411423 
	C490.400177,72.483803 491.018890,78.117355 491.022217,83.751274 
	C491.063812,153.910355 491.028656,224.069504 490.981628,294.228607 
	C490.971069,309.981171 486.535309,324.594543 477.811401,337.544373 
	C462.285828,360.590698 439.916962,372.353302 412.442352,372.822693 
	C372.624756,373.502991 332.787140,372.998108 292.958191,373.060944 
	C290.323669,373.065094 287.690033,373.595520 284.725525,373.627655 
	C273.434998,373.256836 262.474915,373.091431 251.514862,373.091858 
	C250.336334,373.091919 248.872162,373.770294 248.024063,374.617859 
	C240.622559,382.015137 233.331284,389.522736 225.775238,397.081238 
	C225.248550,397.343750 225.047424,397.596863 224.607574,397.998230 
	C221.541306,401.425629 218.807297,404.779053 216.055145,408.089966 
	C216.036987,408.047424 216.126160,408.022827 215.857056,408.108337 
	C215.399765,408.507660 215.211563,408.821442 215.017517,409.079132 
	C215.011642,409.023010 215.124298,409.016754 214.862549,409.114258 
	C214.405731,409.520355 214.210648,409.828979 214.014069,410.075439 
	C214.012573,410.013306 214.136917,410.014465 213.875275,410.117004 
	C213.414124,410.527344 213.214600,410.835144 213.024429,411.083862 
	C213.033783,411.024750 213.150269,411.052277 212.781021,411.069000 
	C211.633774,412.432770 210.855789,413.779816 210.057800,415.091736 
	C210.037796,415.056610 210.113358,415.027954 209.841446,415.101166 
	C209.388626,415.489624 209.207718,415.804840 209.021698,416.072968 
	C209.016586,416.025848 209.111328,416.022339 208.845535,416.105530 
	C208.393845,416.497620 208.207947,416.806549 208.020096,417.067261 
	C208.018158,417.019073 208.114609,417.021179 207.847626,417.106689 
	C207.394562,417.504913 207.208450,417.817657 207.017273,418.076172 
	C207.012207,418.021912 207.121094,418.017181 206.858490,418.112427 
	C206.403427,418.516449 206.210983,418.825226 206.016998,419.075012 
	C206.015457,419.016022 206.133453,419.017975 205.869263,419.113342 
	C205.409332,419.517365 205.213593,419.826019 205.016373,420.075043 
	C205.014908,420.015411 205.134201,420.017395 204.870483,420.113953 
	C204.410309,420.518829 204.213852,420.827179 204.015900,421.075287 
	C204.014404,421.015076 204.134827,421.016876 203.871460,421.114685 
	C203.411011,421.520844 203.213928,421.829224 203.014557,422.076355 
	C203.012238,422.015106 203.134781,422.014954 202.873535,422.116272 
	C202.413193,422.524170 202.214096,422.830719 202.013702,423.075104 
	C202.012405,423.012939 202.136749,423.014496 201.875702,423.116699 
	C201.414597,423.525146 201.214554,423.831390 201.026718,424.080017 
	C201.038925,424.022400 201.151962,424.055511 200.803894,424.063782 
	C199.989029,424.765472 199.522232,425.458862 199.038910,426.095337 
	C199.022385,426.038361 199.138474,426.014008 198.877838,426.117493 
	C198.416138,426.526855 198.215057,426.832733 198.013062,427.075256 
	C198.012146,427.011963 198.138748,427.014069 197.878021,427.117554 
	C197.416229,427.526978 197.215149,427.832947 197.013153,428.075470 
	C197.012238,428.012024 197.139114,428.014099 196.878342,428.117645 
	C196.416428,428.527283 196.215286,428.833344 196.013138,429.075806 
	C196.012146,429.012146 196.139450,429.014099 195.878357,429.118103 
	C195.416367,429.529358 195.215454,429.836578 195.024811,430.084106 
	C195.035080,430.024353 195.152740,430.053650 194.806549,430.067566 
	C193.990860,430.771332 193.521362,431.461182 193.048126,432.097473 
	C193.044403,432.043884 193.151596,432.050751 192.799927,432.072510 
	C191.969528,432.805664 191.490784,433.517090 191.030991,434.424896 
	C191.049942,434.621277 190.903458,434.987640 190.660248,435.028198 
	C190.095642,435.255219 189.952637,435.533447 189.802490,435.976685 
	C189.616913,436.049957 189.219482,436.014465 188.853348,436.038086 
	C187.015366,438.085052 185.543518,440.108368 184.053680,442.089050 
	C184.035690,442.046417 184.124924,442.021790 183.858398,442.110168 
	C183.401505,442.510254 183.211121,442.821899 183.016907,443.076477 
	C183.013077,443.019348 183.127533,443.016937 182.865799,443.114624 
	C182.408478,443.519196 182.212875,443.826141 182.015976,444.073975 
	C182.014679,444.014862 182.132919,444.016998 181.870712,444.114807 
	C181.411057,444.519257 181.213623,444.825958 181.015091,445.073242 
	C181.013992,445.013824 181.132797,445.016235 180.870590,445.115112 
	C180.411575,445.520905 180.214752,445.827789 180.031097,446.079163 
	C180.044235,446.023651 180.152664,446.059265 179.803619,446.063202 
	C178.989899,446.763245 178.525253,447.459351 178.042999,448.099884 
	C178.025391,448.044342 178.139114,448.018860 177.875000,448.115662 
	C177.413071,448.521088 177.215240,448.829712 177.016663,449.076599 
	C177.015930,449.014893 177.139313,449.018433 176.875275,449.114807 
	C176.414261,449.517578 176.217300,449.823975 176.021454,450.073242 
	C176.022568,450.016083 176.136551,450.024597 175.868362,450.109070 
	C175.407791,450.501892 175.215408,450.810272 175.038803,451.076660 
	C175.054565,451.034729 175.133545,451.077087 174.804108,451.034485 
	C173.986404,451.377655 173.498123,451.763428 173.005371,452.081604 
	C173.000900,452.013977 173.136276,452.007355 172.929047,452.118225 
	C172.420990,452.347443 172.181793,452.541656 171.747437,453.107910 
	C171.660400,453.602692 171.830200,453.801361 172.000000,454.000000 
M290.963684,252.503616 
	C294.886597,248.917572 299.119446,245.612289 302.672302,241.690979 
	C312.018616,231.375381 321.339203,221.013367 330.164856,210.255386 
	C339.819031,198.487564 346.908661,185.300903 350.440308,170.285828 
	C357.765045,139.143997 339.031433,109.991928 305.685303,107.276016 
	C287.344604,105.782234 272.193054,113.572304 261.169189,128.663605 
	C259.769958,130.579086 258.247559,132.404633 256.533600,134.588684 
	C242.977982,113.868057 225.155197,103.839035 200.838074,108.030830 
	C182.664734,111.163559 170.488541,122.172020 164.076660,138.878525 
	C157.028824,157.242081 161.766693,174.898178 170.443100,191.579391 
	C178.866470,207.774124 190.593536,221.676865 203.305862,234.558868 
	C217.292603,248.732269 232.324860,261.817657 249.087112,272.775330 
	C255.545853,276.997498 257.658386,277.471283 263.835968,273.018890 
	C272.840332,266.529144 281.588013,259.683167 290.963684,252.503616 
z"/>
<path fill="#000000" opacity="1.000000" stroke="none" 
	d="
M172.468658,454.000000 
	C171.830200,453.801361 171.660400,453.602692 172.014374,453.143127 
	C172.737534,452.590576 172.936905,452.298950 173.136261,452.007355 
	C173.136276,452.007355 173.000900,452.013977 173.327332,452.017273 
	C174.147034,451.706085 174.640289,451.391602 175.133545,451.077087 
	C175.133545,451.077087 175.054565,451.034729 175.309265,450.996857 
	C175.754837,450.647522 175.945694,450.336060 176.136536,450.024597 
	C176.136551,450.024597 176.022568,450.016083 176.291718,449.986847 
	C176.753677,449.644531 176.946487,449.331482 177.139313,449.018433 
	C177.139313,449.018433 177.015930,449.014893 177.286804,448.987152 
	C177.751495,448.645905 177.945312,448.332367 178.139114,448.018860 
	C178.139114,448.018860 178.025391,448.044342 178.396713,448.038300 
	C179.229584,447.374603 179.691116,446.716919 180.152664,446.059265 
	C180.152664,446.059265 180.044235,446.023651 180.301010,445.990540 
	C180.749451,445.643707 180.941116,445.329956 181.132782,445.016235 
	C181.132797,445.016235 181.013992,445.013824 181.285400,444.985779 
	C181.748856,444.644135 181.940887,444.330566 182.132919,444.016998 
	C182.132919,444.016998 182.014679,444.014862 182.285797,443.986298 
	C182.747116,443.644135 182.937317,443.330536 183.127533,443.016937 
	C183.127533,443.016937 183.013077,443.019348 183.286499,442.990387 
	C183.748245,442.648193 183.936569,442.334991 184.124908,442.021790 
	C184.124924,442.021790 184.035690,442.046417 184.365967,441.954987 
	C186.203964,439.913849 187.711716,437.964142 189.219482,436.014465 
	C189.219482,436.014465 189.616913,436.049957 190.087219,436.003296 
	C190.672852,435.633636 190.788147,435.310638 190.903458,434.987640 
	C190.903458,434.987640 191.049942,434.621277 191.382706,434.324463 
	C192.194183,433.368652 192.672897,432.709717 193.151596,432.050751 
	C193.151596,432.050751 193.044403,432.043884 193.402679,432.033813 
	C194.224884,431.367035 194.688812,430.710358 195.152740,430.053650 
	C195.152740,430.053650 195.035080,430.024353 195.294113,429.989960 
	C195.748581,429.641754 195.944016,429.327942 196.139465,429.014099 
	C196.139450,429.014099 196.012146,429.012146 196.282776,428.983459 
	C196.748627,428.641235 196.943878,428.327667 197.139114,428.014099 
	C197.139114,428.014099 197.012238,428.012024 197.282745,427.983307 
	C197.748428,427.641083 197.943588,427.327576 198.138748,427.014069 
	C198.138748,427.014069 198.012146,427.011963 198.282654,426.983215 
	C198.748260,426.640961 198.943375,426.327484 199.138474,426.014008 
	C199.138474,426.014008 199.022385,426.038361 199.393280,426.033081 
	C200.226776,425.370361 200.689362,424.712921 201.151947,424.055511 
	C201.151962,424.055511 201.038925,424.022400 201.296204,423.988525 
	C201.747894,423.641235 201.942322,423.327850 202.136749,423.014496 
	C202.136749,423.014496 202.012405,423.012939 202.283173,422.984009 
	C202.747559,422.641724 202.941177,422.328339 203.134781,422.014954 
	C203.134781,422.014954 203.012238,422.015106 203.284180,421.986206 
	C203.749023,421.643829 203.941925,421.330353 204.134827,421.016876 
	C204.134827,421.016876 204.014404,421.015076 204.285645,420.986267 
	C204.749344,420.644104 204.941788,420.330750 205.134216,420.017395 
	C205.134201,420.017395 205.014908,420.015411 205.286087,419.986511 
	C205.749329,419.644409 205.941376,419.331177 206.133453,419.017975 
	C206.133453,419.017975 206.015457,419.016022 206.286194,418.987000 
	C206.744980,418.644348 206.933029,418.330750 207.121094,418.017181 
	C207.121094,418.017181 207.012207,418.021912 207.286438,417.991486 
	C207.745300,417.647766 207.929962,417.334473 208.114624,417.021179 
	C208.114609,417.021179 208.018158,417.019073 208.290009,416.989197 
	C208.745026,416.646973 208.928192,416.334656 209.111328,416.022339 
	C209.111328,416.022339 209.016586,416.025848 209.291718,415.995605 
	C209.749023,415.652893 209.931183,415.340424 210.113342,415.027954 
	C210.113358,415.027954 210.037796,415.056610 210.369812,414.962891 
	C211.517975,413.596893 212.334122,412.324585 213.150269,411.052277 
	C213.150269,411.052277 213.033783,411.024750 213.293640,410.990295 
	C213.747971,410.642029 213.942444,410.328247 214.136902,410.014465 
	C214.136917,410.014465 214.012573,410.013306 214.282684,409.984680 
	C214.743286,409.642914 214.933777,409.329834 215.124298,409.016754 
	C215.124298,409.016754 215.011642,409.023010 215.286346,408.992004 
	C215.749435,408.648285 215.937805,408.335571 216.126160,408.022827 
	C216.126160,408.022827 216.036987,408.047424 216.365036,407.956848 
	C219.475327,404.951721 222.257568,402.037170 225.473846,399.063293 
	C227.323105,399.227264 228.741760,399.660736 230.152908,399.637634 
	C236.467148,399.534210 242.779282,399.300598 249.382019,399.080048 
	C250.061005,399.046509 250.450119,399.046936 250.948975,399.313232 
	C251.426254,399.401825 251.793793,399.224579 252.381561,399.035950 
	C252.601761,399.024536 253.009445,398.856384 253.474289,398.919617 
	C259.954956,398.936066 265.970795,398.889252 272.450500,398.919769 
	C331.091309,399.000397 389.268372,399.035187 447.445129,398.923035 
	C450.678497,398.916809 453.909485,397.694794 457.544434,397.027893 
	C465.722443,394.133331 474.173889,392.345398 481.093414,388.075195 
	C488.915833,383.247864 495.769531,376.594513 502.302612,370.000275 
	C510.159546,362.069794 514.551331,352.008789 517.394470,340.953064 
	C518.499573,339.504028 519.249817,338.252014 520.000000,337.000000 
	C520.000000,375.963287 520.000000,414.926575 520.000000,454.000000 
	C404.312469,454.000000 288.624878,454.000000 172.468658,454.000000 
z"/>
<path fill="#C1E4CD" opacity="1.000000" stroke="none" 
	d="
M517.039612,341.150085 
	C514.551331,352.008789 510.159546,362.069794 502.302612,370.000275 
	C495.769531,376.594513 488.915833,383.247864 481.093414,388.075195 
	C474.173889,392.345398 465.722443,394.133331 457.090820,397.008789 
	C394.825684,397.324524 333.416992,397.648651 271.754822,397.953613 
	C271.333221,397.913177 271.165100,397.891937 270.938873,397.497040 
	C268.584015,392.633301 271.295959,389.597107 273.956879,386.552734 
	C277.652100,382.324951 281.355865,378.104645 285.055969,373.881165 
	C287.690033,373.595520 290.323669,373.065094 292.958191,373.060944 
	C332.787140,372.998108 372.624756,373.502991 412.442352,372.822693 
	C439.916962,372.353302 462.285828,360.590698 477.811401,337.544373 
	C486.535309,324.594543 490.971069,309.981171 490.981628,294.228607 
	C491.028656,224.069504 491.063812,153.910355 491.022217,83.751274 
	C491.018890,78.117355 490.400177,72.483803 490.419739,66.548073 
	C493.618500,68.746948 496.679199,71.044975 499.273132,73.784935 
	C508.864136,83.915993 514.878296,95.972527 518.055603,109.518196 
	C518.273315,110.446419 519.332275,111.177322 520.000000,112.000000 
	C520.000000,113.714355 520.000000,115.428719 519.708069,117.872940 
	C519.271729,120.244957 519.002014,121.887039 519.001099,123.529259 
	C518.974243,172.191696 519.023499,220.854202 518.945129,269.516541 
	C518.914612,288.494202 518.594177,307.471344 518.491577,326.449188 
	C518.488770,326.963379 519.474976,327.482941 520.000000,328.000000 
	C520.000000,329.714355 520.000000,331.428711 519.705200,333.838623 
	C515.377991,335.577637 517.565552,338.850067 517.039612,341.150085 
z"/>
<path fill="#000000" opacity="1.000000" stroke="none" 
	d="
M160.000000,454.000000 
	C107.084129,454.000000 54.168259,454.000000 1.000000,454.000000 
	C1.000000,415.312805 1.000000,376.625061 1.272192,337.168823 
	C2.017479,336.651520 2.490575,336.902771 2.974822,337.374512 
	C2.985974,337.595062 3.147288,338.006134 3.079430,338.362091 
	C3.328999,339.524780 3.646425,340.331482 3.975409,341.539307 
	C4.111456,342.902374 4.097530,343.907349 4.381084,344.819916 
	C9.000743,359.687225 17.676695,371.950928 29.495573,381.795990 
	C36.892715,387.957794 45.308685,392.762604 55.028404,395.367462 
	C56.104858,395.747620 57.039108,395.797821 58.184845,395.930176 
	C58.396328,396.012299 58.849365,396.037842 59.005753,396.363281 
	C60.100605,396.742737 61.039078,396.796722 62.188042,396.932007 
	C62.398533,397.013336 62.849167,397.038116 63.057884,397.408386 
	C66.651970,398.187836 70.035973,398.938293 73.422913,398.951782 
	C98.864128,399.053040 124.305962,399.025665 149.747467,398.973907 
	C151.488998,398.970367 153.229477,398.443726 154.973495,398.578430 
	C154.986176,403.962769 154.903748,408.931244 155.024368,413.894836 
	C155.285019,424.620026 155.598404,435.344879 156.053085,446.062958 
	C156.097595,447.111938 157.273697,448.112915 157.924545,449.136169 
	C157.924545,449.136169 157.927963,449.049988 157.947037,449.427673 
	C158.644073,451.203552 159.322037,452.601776 160.000000,454.000000 
z"/>
<path fill="#000000" opacity="1.000000" stroke="none" 
	d="
M520.000000,111.531342 
	C519.332275,111.177322 518.273315,110.446419 518.055603,109.518196 
	C514.878296,95.972527 508.864136,83.915993 499.273132,73.784935 
	C496.679199,71.044975 493.618500,68.746948 490.457581,66.109421 
	C488.938110,53.978962 483.941833,43.557419 476.635468,34.193607 
	C473.732971,30.473774 470.332916,27.142151 467.074432,22.969170 
	C466.342804,21.820948 465.696198,21.337332 465.049591,20.853710 
	C465.049591,20.853706 465.017487,20.968002 464.982971,20.711407 
	C464.634338,20.263216 464.320251,20.071621 464.006165,19.880028 
	C464.006165,19.880032 464.017670,19.998461 463.988220,19.722149 
	C463.645172,19.258106 463.331512,19.070375 463.017883,18.882647 
	C463.017883,18.882648 463.044189,18.970346 462.945892,18.632051 
	C459.913361,16.478722 456.979095,14.663689 454.044861,12.848658 
	C454.044861,12.848660 454.035339,12.947007 453.938446,12.614010 
	C449.578735,10.174124 445.466278,7.643175 441.015900,6.065240 
	C435.149475,3.985216 429.017700,2.653454 423.000000,1.000001 
	C455.265198,1.000000 487.530396,1.000000 520.000000,1.000000 
	C520.000000,37.687309 520.000000,74.374992 520.000000,111.531342 
z"/>
<path fill="#000000" opacity="1.000000" stroke="none" 
	d="
M31.118347,40.111370 
	C31.118347,40.111370 30.964212,40.426838 30.650772,40.767200 
	C28.933994,44.104607 27.530653,47.101646 26.127312,50.098690 
	C26.127312,50.098690 25.968014,50.414440 25.638283,50.779331 
	C24.205379,55.097504 23.098927,59.049877 21.999880,63.004307 
	C20.703232,67.669708 19.412992,72.336884 17.983364,77.318855 
	C9.138223,86.259964 5.129643,97.125031 2.596128,109.025566 
	C1.818927,109.121956 1.409464,109.060974 1.000000,109.000000 
	C1.000000,73.083076 1.000000,37.166157 1.000000,1.000000 
	C28.020384,1.000000 55.041534,1.000000 82.835480,1.342183 
	C82.953697,2.115056 82.350800,2.679348 81.636497,2.955698 
	C74.751389,5.619433 67.847527,8.234710 60.686539,10.956585 
	C60.223049,11.353934 60.022057,11.658547 59.821060,11.963161 
	C59.821064,11.963161 59.436829,11.963025 58.956135,12.004471 
	C58.229286,12.363685 57.983128,12.681451 57.736973,12.999217 
	C57.736973,12.999217 57.421406,12.952141 56.980064,12.984163 
	C56.314610,13.330609 56.090492,13.645033 55.866375,13.959457 
	C55.866375,13.959456 55.967594,13.947267 55.626633,13.962225 
	C54.480141,14.628292 53.674614,15.279400 52.869091,15.930510 
	C52.869091,15.930511 52.954861,15.935750 52.614288,15.957762 
	C51.139915,16.963963 50.006119,17.948151 48.872326,18.932339 
	C48.872326,18.932341 48.952301,18.970642 48.695389,19.007671 
	C48.248211,19.357218 48.057945,19.669735 47.867676,19.982252 
	C47.867676,19.982252 47.979877,19.996668 47.714211,20.023876 
	C47.255157,20.364044 47.061771,20.677004 46.868382,20.989964 
	C46.868382,20.989964 46.983047,20.963009 46.615803,20.970381 
	C44.448662,22.967941 42.648766,24.958128 40.848869,26.948318 
	C40.848869,26.948318 40.963882,26.978241 40.704987,27.010572 
	C40.255741,27.357393 40.065395,27.671881 39.875046,27.986370 
	C39.875046,27.986370 39.988354,27.986139 39.717823,28.014475 
	C39.266403,28.356060 39.085510,28.669310 38.904617,28.982557 
	C38.904617,28.982557 38.976910,28.938450 38.642067,29.029438 
	C37.820538,30.064421 37.333851,31.008417 36.847168,31.952412 
	C36.847168,31.952412 36.963436,31.981050 36.705307,32.012436 
	C36.260868,32.357822 36.074551,32.671822 35.888233,32.985821 
	C35.888233,32.985821 35.975895,32.953922 35.653740,33.040970 
	C35.170242,33.753887 35.008892,34.379749 34.847546,35.005615 
	C34.847546,35.005615 34.993526,35.006401 34.726761,35.029610 
	C34.273457,35.367134 34.086914,35.681450 33.900375,35.995766 
	C33.900375,35.995766 34.007435,35.965149 33.722702,35.998039 
	C33.258144,36.344814 33.078323,36.658695 32.898502,36.972580 
	C32.898502,36.972580 32.977604,36.962101 32.680611,37.017757 
	C32.288864,37.435001 32.194115,37.796593 32.099361,38.158180 
	C32.099361,38.158180 31.946869,38.417416 31.701485,38.719116 
	C31.343517,39.384338 31.230932,39.747852 31.118347,40.111370 
z"/>
<path fill="#FADFD7" opacity="1.000000" stroke="none" 
	d="
M396.000916,1.989897 
	C300.309540,2.010421 204.618149,2.030474 108.926765,2.052998 
	C104.599884,2.054017 100.272995,2.077381 95.473312,1.816291 
	C95.000336,1.361496 95.000168,1.180748 95.000000,1.000000 
	C195.020889,1.000000 295.041779,1.000000 395.531555,1.247474 
	C396.000397,1.494948 396.000916,1.989897 396.000916,1.989897 
z"/>
<path fill="#F7F0E1" opacity="1.000000" stroke="none" 
	d="
M1.000000,109.468658 
	C1.409464,109.060974 1.818927,109.121956 2.613330,109.478737 
	C2.671404,117.890152 2.038280,126.006813 2.065903,134.121216 
	C2.296285,201.799042 2.648336,269.476471 2.963669,337.153992 
	C2.490575,336.902771 2.017479,336.651520 1.272192,336.700134 
	C1.000000,261.312439 1.000000,185.624878 1.000000,109.468658 
z"/>
<path fill="#E6F8EC" opacity="1.000000" stroke="none" 
	d="
M520.000000,327.531342 
	C519.474976,327.482941 518.488770,326.963379 518.491577,326.449188 
	C518.594177,307.471344 518.914612,288.494202 518.945129,269.516541 
	C519.023499,220.854202 518.974243,172.191696 519.001099,123.529259 
	C519.002014,121.887039 519.271729,120.244957 519.708069,118.301407 
	C520.000000,187.687561 520.000000,257.375122 520.000000,327.531342 
z"/>
<path fill="#FCD8CF" opacity="1.000000" stroke="none" 
	d="
M94.539368,1.000000 
	C95.000168,1.180748 95.000336,1.361496 95.005310,1.813904 
	C90.683434,2.860446 86.224754,3.210826 82.059891,4.506031 
	C75.177933,6.646203 68.485565,9.396002 61.351585,11.659561 
	C60.976257,11.241432 60.962646,11.052641 60.949032,10.863848 
	C67.847527,8.234710 74.751389,5.619433 81.636497,2.955698 
	C82.350800,2.679348 82.953697,2.115056 83.304138,1.342183 
	C86.692909,1.000000 90.385818,1.000000 94.539368,1.000000 
z"/>
<path fill="#FBD9D1" opacity="1.000000" stroke="none" 
	d="
M422.600006,1.000001 
	C429.017700,2.653454 435.149475,3.985216 441.015900,6.065240 
	C445.466278,7.643175 449.578735,10.174124 453.987793,12.611673 
	C450.913635,11.702459 447.763794,10.215850 444.458984,9.271286 
	C436.199768,6.910689 427.870209,4.796112 419.279358,2.069490 
	C418.993195,1.370780 418.996613,1.185390 419.000000,1.000000 
	C420.066681,1.000000 421.133331,1.000000 422.600006,1.000001 
z"/>
<path fill="#FBD9D1" opacity="1.000000" stroke="none" 
	d="
M396.324402,2.243150 
	C396.000916,1.989897 396.000397,1.494948 396.000183,1.247474 
	C401.354919,1.000000 406.709869,1.000000 412.532501,1.251237 
	C413.000732,1.669965 413.001221,1.837456 413.001709,2.004947 
	C407.550446,2.168766 402.099182,2.332585 396.324402,2.243150 
z"/>
<path fill="#F8CEC2" opacity="1.000000" stroke="none" 
	d="
M160.454102,454.000000 
	C159.322037,452.601776 158.644073,451.203552 157.904663,449.435638 
	C161.798553,450.473358 165.753876,451.880768 169.854584,453.644073 
	C166.969406,454.000000 163.938812,454.000000 160.454102,454.000000 
z"/>
<path fill="#E6F8EC" opacity="1.000000" stroke="none" 
	d="
M517.394470,340.953064 
	C517.565552,338.850067 515.377991,335.577637 519.705200,334.267090 
	C520.000000,334.750000 520.000000,335.500000 520.000000,336.625000 
	C519.249817,338.252014 518.499573,339.504028 517.394470,340.953064 
z"/>
<path fill="#FADFD7" opacity="1.000000" stroke="none" 
	d="
M413.427734,2.025513 
	C413.001221,1.837456 413.000732,1.669965 413.000122,1.251237 
	C414.714355,1.000000 416.428711,1.000000 418.571533,1.000000 
	C418.996613,1.185390 418.993195,1.370780 418.976410,1.834881 
	C417.259918,2.091088 415.556854,2.068583 413.427734,2.025513 
z"/>
<path fill="#F2846E" opacity="1.000000" stroke="none" 
	d="
M290.704407,252.746338 
	C281.588013,259.683167 272.840332,266.529144 263.835968,273.018890 
	C257.658386,277.471283 255.545853,276.997498 249.087112,272.775330 
	C232.324860,261.817657 217.292603,248.732269 203.305862,234.558868 
	C190.593536,221.676865 178.866470,207.774124 170.443100,191.579391 
	C161.766693,174.898178 157.028824,157.242081 164.076660,138.878525 
	C170.488541,122.172020 182.664734,111.163559 200.838074,108.030830 
	C225.155197,103.839035 242.977982,113.868057 256.533600,134.588684 
	C258.247559,132.404633 259.769958,130.579086 261.169189,128.663605 
	C272.193054,113.572304 287.344604,105.782234 305.685303,107.276016 
	C339.031433,109.991928 357.765045,139.143997 350.440308,170.285828 
	C346.908661,185.300903 339.819031,198.487564 330.164856,210.255386 
	C321.339203,221.013367 312.018616,231.375381 302.672302,241.690979 
	C299.119446,245.612289 294.886597,248.917572 290.704407,252.746338 
z"/>
<path fill="#F0DEBE" opacity="1.000000" stroke="none" 
	d="
M2.974821,337.374512 
	C2.648336,269.476471 2.296285,201.799042 2.065903,134.121216 
	C2.038280,126.006813 2.671404,117.890152 2.981068,109.321365 
	C5.129643,97.125031 9.138223,86.259964 18.290382,77.291946 
	C19.488064,76.631172 20.242121,76.312866 20.996178,75.994560 
	C21.006546,148.156235 20.824951,220.318741 21.139841,292.479095 
	C21.239193,315.246643 28.392422,335.553864 45.841583,351.353729 
	C58.513855,362.828247 72.937073,370.390442 90.646133,372.467041 
	C92.421608,372.904633 93.689751,372.988495 94.957901,373.072357 
	C115.441635,373.072357 135.925369,373.072357 156.114090,373.072357 
	C156.114090,381.180664 156.114090,388.611908 155.846649,396.519531 
	C155.388397,396.999725 155.197601,397.003510 154.566681,397.008942 
	C145.709991,397.336182 137.291504,397.977509 128.877243,397.926086 
	C106.866890,397.791687 84.858398,397.354584 62.849167,397.038116 
	C62.849167,397.038116 62.398533,397.013336 61.945358,396.698639 
	C60.611240,396.268585 59.730305,396.153198 58.849365,396.037842 
	C58.849365,396.037842 58.396328,396.012299 57.945698,395.698608 
	C56.625446,395.269104 55.755821,395.153290 54.886200,395.037476 
	C45.308685,392.762604 36.892715,387.957794 29.495573,381.795990 
	C17.676695,371.950928 9.000743,359.687225 4.381084,344.819916 
	C4.097530,343.907349 4.111456,342.902374 3.990439,341.199066 
	C3.711702,339.640533 3.429493,338.823334 3.147286,338.006134 
	C3.147288,338.006134 2.985974,337.595062 2.974821,337.374512 
z"/>
<path fill="#EFDEBF" opacity="1.000000" stroke="none" 
	d="
M284.725525,373.627625 
	C281.355865,378.104645 277.652100,382.324951 273.956879,386.552734 
	C271.295959,389.597107 268.584015,392.633301 270.472412,397.530731 
	C264.379181,398.244202 258.694305,398.550293 253.009445,398.856384 
	C253.009445,398.856384 252.601761,399.024536 252.050812,399.014099 
	C251.279648,399.018219 251.059433,399.032806 250.839233,399.047394 
	C250.450119,399.046936 250.061005,399.046509 249.084381,398.775208 
	C245.045731,398.336761 241.590973,398.222351 238.144394,397.987762 
	C234.094971,397.712158 230.052658,397.332214 226.007263,396.997559 
	C233.331284,389.522736 240.622559,382.015137 248.024063,374.617859 
	C248.872162,373.770294 250.336334,373.091919 251.514862,373.091858 
	C262.474915,373.091431 273.434998,373.256836 284.725525,373.627625 
z"/>
<path fill="#F8CEC2" opacity="1.000000" stroke="none" 
	d="
M155.006790,397.007324 
	C155.197601,397.003510 155.388397,396.999725 155.866684,396.986023 
	C156.751160,399.670380 157.827972,402.358093 157.864960,405.059998 
	C158.061890,419.440308 157.998352,433.824158 157.974747,448.671478 
	C157.273697,448.112915 156.097595,447.111938 156.053085,446.062958 
	C155.598404,435.344879 155.285019,424.620026 155.024368,413.894836 
	C154.903748,408.931244 154.986176,403.962769 154.977692,398.289917 
	C154.988159,397.391327 154.997482,397.199310 155.006790,397.007324 
z"/>
<path fill="#FBDDD3" opacity="1.000000" stroke="none" 
	d="
M21.251539,75.696457 
	C20.242121,76.312866 19.488064,76.631172 18.426991,76.976379 
	C19.412992,72.336884 20.703232,67.669708 21.999880,63.004307 
	C23.098927,59.049877 24.205379,55.097504 25.654348,50.955429 
	C24.502398,58.977207 23.004648,67.187775 21.251539,75.696457 
z"/>
<path fill="#F9F4E5" opacity="1.000000" stroke="none" 
	d="
M225.775238,397.081238 
	C230.052658,397.332214 234.094971,397.712158 238.144394,397.987762 
	C241.590973,398.222351 245.045731,398.336761 248.794525,398.809204 
	C242.779282,399.300598 236.467148,399.534210 230.152908,399.637634 
	C228.741760,399.660736 227.323105,399.227264 225.460052,398.762817 
	C224.988052,398.322510 224.963928,398.123413 224.939819,397.924286 
	C225.047424,397.596863 225.248550,397.343750 225.775238,397.081238 
z"/>
<path fill="#FCD6CC" opacity="1.000000" stroke="none" 
	d="
M224.607574,397.998230 
	C224.963928,398.123413 224.988052,398.322510 225.026001,398.822144 
	C222.257568,402.037170 219.475327,404.951721 216.383179,407.999390 
	C218.807297,404.779053 221.541306,401.425629 224.607574,397.998230 
z"/>
<path fill="#FBD9D1" opacity="1.000000" stroke="none" 
	d="
M454.078674,13.197308 
	C456.979095,14.663689 459.913361,16.478722 462.987976,18.614006 
	C460.123047,17.138157 457.117798,15.342057 454.078674,13.197308 
z"/>
<path fill="#FBDDD3" opacity="1.000000" stroke="none" 
	d="
M26.460613,50.011696 
	C27.530653,47.101646 28.933994,44.104607 30.666351,40.942062 
	C29.594885,43.825943 28.194401,46.875324 26.460613,50.011696 
z"/>
<path fill="#FBDBD3" opacity="1.000000" stroke="none" 
	d="
M41.202736,26.941837 
	C42.648766,24.958128 44.448662,22.967941 46.598663,20.914034 
	C45.151382,22.878664 43.353996,24.907011 41.202736,26.941837 
z"/>
<path fill="#FCD4CC" opacity="1.000000" stroke="none" 
	d="
M188.853333,436.038086 
	C187.711716,437.964142 186.203964,439.913849 184.383942,441.997620 
	C185.543518,440.108368 187.015366,438.085052 188.853333,436.038086 
z"/>
<path fill="#FCD6CC" opacity="1.000000" stroke="none" 
	d="
M212.781021,411.069000 
	C212.334122,412.324585 211.517975,413.596893 210.389816,414.998047 
	C210.855789,413.779816 211.633774,412.432770 212.781021,411.069000 
z"/>
<path fill="#FBDBD3" opacity="1.000000" stroke="none" 
	d="
M49.245270,18.982674 
	C50.006119,17.948151 51.139915,16.963963 52.608124,15.915243 
	C51.834431,16.911478 50.726326,17.972244 49.245270,18.982674 
z"/>
<path fill="#F8CEC2" opacity="1.000000" stroke="none" 
	d="
M94.726929,372.803711 
	C93.689751,372.988495 92.421608,372.904633 91.075783,372.512573 
	C92.164055,372.314636 93.330009,372.424835 94.726929,372.803711 
z"/>
<path fill="#FBDBD3" opacity="1.000000" stroke="none" 
	d="
M37.211906,31.925434 
	C37.333851,31.008417 37.820538,30.064421 38.616749,28.995499 
	C38.476398,29.879866 38.026524,30.889162 37.211906,31.925434 
z"/>
<path fill="#FBDBD3" opacity="1.000000" stroke="none" 
	d="
M53.238434,15.988071 
	C53.674614,15.279400 54.480141,14.628292 55.614166,13.912798 
	C55.164368,14.580819 54.386074,15.313226 53.238434,15.988071 
z"/>
<path fill="#FBD9D1" opacity="1.000000" stroke="none" 
	d="
M465.053802,21.174210 
	C465.696198,21.337332 466.342804,21.820948 466.923218,22.665319 
	C466.257324,22.515617 465.657654,22.005161 465.053802,21.174210 
z"/>
<path fill="#FCD6CC" opacity="1.000000" stroke="none" 
	d="
M200.803894,424.063782 
	C200.689362,424.712921 200.226776,425.370361 199.409821,426.090027 
	C199.522232,425.458862 199.989029,424.765472 200.803894,424.063782 
z"/>
<path fill="#FCD6CC" opacity="1.000000" stroke="none" 
	d="
M194.806549,430.067566 
	C194.688812,430.710358 194.224884,431.367035 193.406403,432.087402 
	C193.521362,431.461182 193.990860,430.771332 194.806549,430.067566 
z"/>
<path fill="#FCD6CC" opacity="1.000000" stroke="none" 
	d="
M192.799927,432.072510 
	C192.672897,432.709717 192.194183,433.368652 191.363754,434.128052 
	C191.490784,433.517090 191.969528,432.805664 192.799927,432.072510 
z"/>
<path fill="#FCD4CC" opacity="1.000000" stroke="none" 
	d="
M179.803619,446.063202 
	C179.691116,446.716919 179.229584,447.374603 178.414307,448.093842 
	C178.525253,447.459351 178.989899,446.763245 179.803619,446.063202 
z"/>
<path fill="#FCD4CC" opacity="1.000000" stroke="none" 
	d="
M174.804108,451.034485 
	C174.640289,451.391602 174.147034,451.706085 173.331818,452.084900 
	C173.498123,451.763428 173.986404,451.377655 174.804108,451.034485 
z"/>
<path fill="#FBDBD3" opacity="1.000000" stroke="none" 
	d="
M35.139225,34.849022 
	C35.008892,34.379749 35.170242,33.753887 35.633598,32.998901 
	C35.767376,33.477333 35.599140,34.084885 35.139225,34.849022 
z"/>
<path fill="#FCD4CC" opacity="1.000000" stroke="none" 
	d="
M182.865799,443.114624 
	C182.937317,443.330536 182.747116,443.644135 182.287094,444.045410 
	C182.212875,443.826141 182.408478,443.519196 182.865799,443.114624 
z"/>
<path fill="#FBDBD3" opacity="1.000000" stroke="none" 
	d="
M47.127480,20.888737 
	C47.061771,20.677004 47.255157,20.364044 47.719696,19.967581 
	C47.789425,20.185223 47.588001,20.486366 47.127480,20.888737 
z"/>
<path fill="#FCD6CC" opacity="1.000000" stroke="none" 
	d="
M198.877838,426.117493 
	C198.943375,426.327484 198.748260,426.640961 198.283569,427.046509 
	C198.215057,426.832733 198.416138,426.526855 198.877838,426.117493 
z"/>
<path fill="#FCD6CC" opacity="1.000000" stroke="none" 
	d="
M197.878021,427.117554 
	C197.943588,427.327576 197.748428,427.641083 197.283661,428.046753 
	C197.215149,427.832947 197.416229,427.526978 197.878021,427.117554 
z"/>
<path fill="#FCD6CC" opacity="1.000000" stroke="none" 
	d="
M196.878342,428.117645 
	C196.943878,428.327667 196.748627,428.641235 196.283752,429.047119 
	C196.215286,428.833344 196.416428,428.527283 196.878342,428.117645 
z"/>
<path fill="#FCD6CC" opacity="1.000000" stroke="none" 
	d="
M195.878357,429.118103 
	C195.944016,429.327942 195.748581,429.641754 195.283844,430.049683 
	C195.215454,429.836578 195.416367,429.529358 195.878357,429.118103 
z"/>
<path fill="#FBD9D1" opacity="1.000000" stroke="none" 
	d="
M463.105774,19.149696 
	C463.331512,19.070375 463.645172,19.258106 464.047302,19.714996 
	C463.821747,19.795019 463.507690,19.605883 463.105774,19.149696 
z"/>
<path fill="#FBDBD3" opacity="1.000000" stroke="none" 
	d="
M48.136913,19.897484 
	C48.057945,19.669735 48.248211,19.357218 48.709713,18.965710 
	C48.789349,19.195387 48.597752,19.504049 48.136913,19.897484 
z"/>
<path fill="#FCD4CC" opacity="1.000000" stroke="none" 
	d="
M190.660248,435.028198 
	C190.788147,435.310638 190.672852,435.633636 190.272797,435.930023 
	C189.952637,435.533447 190.095642,435.255219 190.660248,435.028198 
z"/>
<path fill="#FBDBD3" opacity="1.000000" stroke="none" 
	d="
M56.139671,13.924034 
	C56.090492,13.645033 56.314610,13.330609 56.839867,13.060289 
	C56.898331,13.365798 56.655651,13.627205 56.139671,13.924034 
z"/>
<path fill="#FCD4CC" opacity="1.000000" stroke="none" 
	d="
M183.858398,442.110168 
	C183.936569,442.334991 183.748245,442.648193 183.290314,443.047485 
	C183.211121,442.821899 183.401505,442.510254 183.858398,442.110168 
z"/>
<path fill="#FCD6CC" opacity="1.000000" stroke="none" 
	d="
M202.873535,422.116272 
	C202.941177,422.328339 202.747559,422.641724 202.284454,423.046204 
	C202.214096,422.830719 202.413193,422.524170 202.873535,422.116272 
z"/>
<path fill="#FCD4CC" opacity="1.000000" stroke="none" 
	d="
M181.870712,444.114807 
	C181.940887,444.330566 181.748856,444.644135 181.286499,445.045166 
	C181.213623,444.825958 181.411057,444.519257 181.870712,444.114807 
z"/>
<path fill="#FCD4CC" opacity="1.000000" stroke="none" 
	d="
M180.870575,445.115112 
	C180.941116,445.329956 180.749451,445.643707 180.287872,446.046082 
	C180.214752,445.827789 180.411575,445.520905 180.870575,445.115112 
z"/>
<path fill="#FBDBD3" opacity="1.000000" stroke="none" 
	d="
M58.009224,12.925995 
	C57.983128,12.681451 58.229286,12.363685 58.780823,12.083046 
	C58.817959,12.364373 58.549717,12.608573 58.009224,12.925995 
z"/>
<path fill="#FCD4CC" opacity="1.000000" stroke="none" 
	d="
M177.875000,448.115662 
	C177.945312,448.332367 177.751495,448.645905 177.287552,449.048889 
	C177.215240,448.829712 177.413071,448.521088 177.875000,448.115662 
z"/>
<path fill="#FBDBD3" opacity="1.000000" stroke="none" 
	d="
M60.686539,10.956585 
	C60.962646,11.052641 60.976257,11.241432 60.994797,11.713985 
	C60.803314,12.001057 60.606903,12.004364 60.115776,11.985416 
	C60.022057,11.658547 60.223049,11.353934 60.686539,10.956585 
z"/>
<path fill="#FCD4CC" opacity="1.000000" stroke="none" 
	d="
M176.875259,449.114807 
	C176.946487,449.331482 176.753677,449.644531 176.290588,450.044006 
	C176.217300,449.823975 176.414261,449.517578 176.875259,449.114807 
z"/>
<path fill="#FCD4CC" opacity="1.000000" stroke="none" 
	d="
M175.868347,450.109070 
	C175.945694,450.336060 175.754837,450.647522 175.293518,451.038818 
	C175.215408,450.810272 175.407791,450.501892 175.868347,450.109070 
z"/>
<path fill="#FCD4CC" opacity="1.000000" stroke="none" 
	d="
M172.929047,452.118225 
	C172.936905,452.298950 172.737534,452.590576 172.271210,452.846985 
	C172.181793,452.541656 172.420990,452.347443 172.929047,452.118225 
z"/>
<path fill="#FCD6CC" opacity="1.000000" stroke="none" 
	d="
M214.862549,409.114258 
	C214.933777,409.329834 214.743286,409.642914 214.284180,410.046814 
	C214.210648,409.828979 214.405731,409.520355 214.862549,409.114258 
z"/>
<path fill="#FBDBD3" opacity="1.000000" stroke="none" 
	d="
M31.361706,39.953377 
	C31.230932,39.747852 31.343517,39.384338 31.729900,38.866791 
	C31.870819,39.073631 31.737944,39.434509 31.361706,39.953377 
z"/>
<path fill="#FBDBD3" opacity="1.000000" stroke="none" 
	d="
M32.345001,38.027824 
	C32.194115,37.796593 32.288864,37.435001 32.670883,36.979065 
	C32.835651,37.222298 32.713142,37.559883 32.345001,38.027824 
z"/>
<path fill="#FBDBD3" opacity="1.000000" stroke="none" 
	d="
M33.177124,36.907768 
	C33.078323,36.658695 33.258144,36.344814 33.706291,35.944839 
	C33.801659,36.186813 33.628700,36.514885 33.177124,36.907768 
z"/>
<path fill="#FBDBD3" opacity="1.000000" stroke="none" 
	d="
M34.148849,35.880280 
	C34.086914,35.681450 34.273457,35.367134 34.727165,34.956619 
	C34.795330,35.161880 34.596333,35.463337 34.148849,35.880280 
z"/>
<path fill="#FBDBD3" opacity="1.000000" stroke="none" 
	d="
M36.152290,32.892380 
	C36.074551,32.671822 36.260868,32.357822 36.715611,31.953459 
	C36.794807,32.175041 36.605579,32.486992 36.152290,32.892380 
z"/>
<path fill="#FBDBD3" opacity="1.000000" stroke="none" 
	d="
M39.168911,28.896992 
	C39.085510,28.669310 39.266403,28.356060 39.715645,27.957863 
	C39.800404,28.185751 39.616802,28.498590 39.168911,28.896992 
z"/>
<path fill="#FBDBD3" opacity="1.000000" stroke="none" 
	d="
M40.140194,27.891335 
	C40.065395,27.671881 40.255741,27.357393 40.715721,26.952133 
	C40.792019,27.173006 40.598682,27.484652 40.140194,27.891335 
z"/>
<path fill="#FCD6CC" opacity="1.000000" stroke="none" 
	d="
M215.857056,408.108337 
	C215.937805,408.335571 215.749435,408.648285 215.292206,409.048126 
	C215.211563,408.821442 215.399765,408.507660 215.857056,408.108337 
z"/>
<path fill="#FCD6CC" opacity="1.000000" stroke="none" 
	d="
M201.875702,423.116699 
	C201.942322,423.327850 201.747894,423.641235 201.283997,424.046143 
	C201.214554,423.831390 201.414597,423.525146 201.875702,423.116699 
z"/>
<path fill="#FCD6CC" opacity="1.000000" stroke="none" 
	d="
M213.875275,410.117004 
	C213.942444,410.328247 213.747971,410.642029 213.284286,411.049377 
	C213.214600,410.835144 213.414124,410.527344 213.875275,410.117004 
z"/>
<path fill="#FBD9D1" opacity="1.000000" stroke="none" 
	d="
M464.117493,20.133438 
	C464.320251,20.071621 464.634338,20.263216 465.040985,20.723936 
	C464.831970,20.790991 464.530426,20.588919 464.117493,20.133438 
z"/>
<path fill="#FCD6CC" opacity="1.000000" stroke="none" 
	d="
M209.841431,415.101166 
	C209.931183,415.340424 209.749023,415.652893 209.296844,416.042725 
	C209.207718,415.804840 209.388626,415.489624 209.841431,415.101166 
z"/>
<path fill="#FCD6CC" opacity="1.000000" stroke="none" 
	d="
M208.845551,416.105530 
	C208.928192,416.334656 208.745026,416.646973 208.291946,417.037384 
	C208.207947,416.806549 208.393845,416.497620 208.845551,416.105530 
z"/>
<path fill="#FCD6CC" opacity="1.000000" stroke="none" 
	d="
M207.847641,417.106689 
	C207.929962,417.334473 207.745300,417.647766 207.291504,418.045746 
	C207.208450,417.817657 207.394562,417.504913 207.847641,417.106689 
z"/>
<path fill="#FCD6CC" opacity="1.000000" stroke="none" 
	d="
M206.858475,418.112427 
	C206.933029,418.330750 206.744980,418.644348 206.287720,419.045959 
	C206.210983,418.825226 206.403427,418.516449 206.858475,418.112427 
z"/>
<path fill="#FCD6CC" opacity="1.000000" stroke="none" 
	d="
M205.869263,419.113342 
	C205.941376,419.331177 205.749329,419.644409 205.287552,420.046143 
	C205.213593,419.826019 205.409332,419.517365 205.869263,419.113342 
z"/>
<path fill="#FCD6CC" opacity="1.000000" stroke="none" 
	d="
M204.870483,420.113953 
	C204.941788,420.330750 204.749344,420.644104 204.287140,421.046478 
	C204.213852,420.827179 204.410309,420.518829 204.870483,420.113953 
z"/>
<path fill="#FCD6CC" opacity="1.000000" stroke="none" 
	d="
M203.871445,421.114685 
	C203.941925,421.330353 203.749023,421.643829 203.286499,422.047455 
	C203.213928,421.829224 203.411011,421.520844 203.871445,421.114685 
z"/>
<path fill="#E1F4E8" opacity="1.000000" stroke="none" 
	d="
M272.008301,397.972778 
	C333.416992,397.648651 394.825684,397.324524 456.687988,397.019531 
	C453.909485,397.694794 450.678497,398.916809 447.445129,398.923035 
	C389.268372,399.035187 331.091309,399.000397 272.455627,398.702332 
	C271.996887,398.407562 272.008301,397.972778 272.008301,397.972778 
z"/>
<path fill="#F9F4E5" opacity="1.000000" stroke="none" 
	d="
M271.754822,397.953613 
	C272.008301,397.972778 271.996887,398.407562 271.991760,398.625000 
	C265.970795,398.889252 259.954956,398.936066 253.474289,398.919617 
	C258.694305,398.550293 264.379181,398.244202 270.530518,397.904419 
	C271.165100,397.891937 271.333221,397.913177 271.754822,397.953613 
z"/>
<path fill="#F9F4E5" opacity="1.000000" stroke="none" 
	d="
M250.948975,399.313232 
	C251.059433,399.032806 251.279648,399.018219 251.830597,399.025513 
	C251.793793,399.224579 251.426254,399.401825 250.948975,399.313232 
z"/>
<path fill="#F8F1E0" opacity="1.000000" stroke="none" 
	d="
M154.566681,397.008942 
	C154.997482,397.199310 154.988159,397.391327 154.974640,397.871826 
	C153.229477,398.443726 151.488998,398.970367 149.747467,398.973907 
	C124.305962,399.025665 98.864128,399.053040 73.422913,398.951782 
	C70.035973,398.938293 66.651970,398.187836 63.057884,397.408386 
	C84.858398,397.354584 106.866890,397.791687 128.877243,397.926086 
	C137.291504,397.977509 145.709991,397.336182 154.566681,397.008942 
z"/>
<path fill="#F8F1E0" opacity="1.000000" stroke="none" 
	d="
M59.005753,396.363281 
	C59.730305,396.153198 60.611240,396.268585 61.734863,396.617310 
	C61.039078,396.796722 60.100605,396.742737 59.005753,396.363281 
z"/>
<path fill="#F8F1E0" opacity="1.000000" stroke="none" 
	d="
M55.028404,395.367462 
	C55.755821,395.153290 56.625446,395.269104 57.734215,395.616455 
	C57.039108,395.797821 56.104858,395.747620 55.028404,395.367462 
z"/>
<path fill="#F7F0E1" opacity="1.000000" stroke="none" 
	d="
M3.079429,338.362091 
	C3.429493,338.823334 3.711702,339.640533 3.978881,340.797974 
	C3.646425,340.331482 3.328999,339.524780 3.079429,338.362091 
z"/>
</svg>